<svg width="56" height="56" viewBox="0 0 56 56" fill="none" xmlns="http://www.w3.org/2000/svg">
<g clip-path="url(#clip0_89_291)">
<path d="M56 28C56 12.5361 43.4639 0 28 0C12.5361 0 0 12.5361 0 28C0 43.4639 12.5361 56 28 56C43.4639 56 56 43.4639 56 28Z" fill="#AD7E4F"/>
<rect x="12.75" y="17.75" width="31" height="27" rx="9.25" stroke="white" stroke-width="1.5"/>
<rect x="18.75" y="24.75" width="19" height="13" rx="6.5" stroke="white" stroke-width="1.5"/>
<circle cx="28.1452" cy="10.1452" r="2.39516" stroke="white" stroke-width="1.5"/>
<line x1="28.25" y1="13" x2="28.25" y2="18.0323" stroke="white" stroke-width="1.5"/>
<path d="M13 37.25C11.9458 37.25 10.8803 36.7067 10.0589 35.6389C9.23423 34.5668 8.75 33.0796 8.75 31.5C8.75 29.9204 9.23424 28.4332 10.0589 27.3611C10.8803 26.2933 11.9458 25.75 13 25.75" stroke="white" stroke-width="1.5"/>
<path d="M44 37.25C45.0542 37.25 46.1197 36.7067 46.9411 35.6389C47.7658 34.5668 48.25 33.0796 48.25 31.5C48.25 29.9204 47.7658 28.4332 46.9411 27.3611C46.1197 26.2933 45.0542 25.75 44 25.75" stroke="white" stroke-width="1.5"/>
<path d="M26.5 33.4286C26.5 33.4286 27.0833 34 28.25 34C29.4167 34 30 33.4286 30 33.4286" stroke="white" stroke-linecap="round"/>
<circle cx="24.225" cy="31.225" r="1.225" fill="white"/>
<ellipse cx="32.275" cy="31.225" rx="1.225" ry="1.225" fill="white"/>
</g>
<defs>
<clipPath id="clip0_89_291">
<rect width="56" height="56" fill="white"/>
</clipPath>
</defs>
</svg>
