<svg width="215" height="114" viewBox="0 0 215 114" fill="none" xmlns="http://www.w3.org/2000/svg">
<path d="M168.163 53.1678H167.353C166.485 53.1678 165.618 53.1487 164.751 53.1678C164.393 53.1773 164.167 53.0633 163.95 52.769C161.63 49.7022 159.302 46.6449 156.973 43.5877C153.777 39.3815 150.582 35.1753 147.376 30.9787C147.253 30.8173 147.131 30.6749 146.933 30.542C146.848 31.8047 146.858 33.0485 146.858 34.2924C146.858 35.5456 146.858 36.7989 146.858 38.0523V49.3319C146.858 50.5852 146.858 51.829 146.858 53.1203C144.811 53.1203 142.832 53.1203 140.843 53.1203C140.73 52.712 140.683 20.4871 140.805 19.4902C140.975 19.4807 141.154 19.4616 141.333 19.4616C142.577 19.4616 143.822 19.4712 145.066 19.4521C145.443 19.4521 145.688 19.5661 145.915 19.87C148.951 23.7248 151.996 27.5701 155.031 31.4154C157.228 34.1879 159.425 36.9699 161.621 39.7423C161.744 39.8942 161.875 40.0366 162.007 40.1885C162.046 40.1696 162.083 40.1506 162.12 40.1411V19.5756C162.62 19.4427 167.589 19.4332 168.163 19.5472V53.1773V53.1678Z" fill="white"/>
<path d="M136.28 36.3141C136.233 44.0238 131.378 50.1858 124.967 52.3411C117.566 54.8287 109.478 51.6385 105.603 44.7075C103.954 41.7451 103.246 38.5643 103.464 35.1843C103.944 27.6834 109.12 21.6259 115.898 19.9263C123.289 18.0653 130.916 21.5974 134.404 28.4715C135.657 30.9306 136.252 33.5512 136.28 36.3046V36.3141ZM130.887 36.523C130.868 35.3647 130.689 34.1968 130.35 33.0954C128.041 25.6421 119.178 22.7937 113.135 27.5506C108.148 31.4813 107.357 38.8966 111.401 43.815C114.663 47.7836 120.074 49.0465 124.59 46.7488C128.719 44.6505 130.699 41.1184 130.897 36.523H130.887Z" fill="white"/>
<path d="M71.6642 19.5276C71.6642 20.1732 71.6642 20.7999 71.6642 21.417C71.6642 22.0247 71.7773 22.6703 71.5982 23.2209C71.4191 23.7717 70.9571 24.2274 70.5989 24.7212C65.4421 31.8326 60.2852 38.9537 55.1378 46.0652C55.0058 46.2455 54.8833 46.4355 54.6947 46.7203C55.0341 46.7392 55.2604 46.7583 55.496 46.7583C60.6058 46.7583 65.7154 46.7583 70.8157 46.7583C71.0702 46.7583 71.3343 46.7773 71.6265 46.7962V53.1103H45.682C45.6726 52.9488 45.6443 52.7874 45.6443 52.626C45.6443 51.6385 45.6538 50.651 45.6443 49.6636C45.6443 49.3218 45.7481 49.0465 45.946 48.7806C51.2537 41.3558 56.552 33.9215 61.8407 26.4871C62.0293 26.2213 62.2179 25.9365 62.4818 25.5472C60.6058 25.5377 58.8711 25.5472 57.127 25.5472C55.3547 25.5472 53.5823 25.5472 51.8099 25.5472C50.0376 25.5472 48.3123 25.5472 46.5871 25.5472C46.4551 25.0914 46.4174 20.2776 46.5211 19.537C46.9359 19.4326 70.9194 19.4042 71.6831 19.5276H71.6642Z" fill="white"/>
<path d="M97.8064 45.1162C98.8435 46.436 99.8616 47.7178 100.917 49.047C100.767 49.1705 100.654 49.2654 100.54 49.3603C98.0516 51.4302 95.2045 52.6835 91.9898 53.0538C84.4006 53.9369 77.5563 49.3984 74.8883 42.5717C71.7584 34.5582 75.0485 25.3864 82.4962 21.3606C88.4827 18.123 95.8832 19.0155 100.936 23.5824C101.088 23.7247 101.238 23.8672 101.436 24.0666C100.343 25.4813 99.2583 26.877 98.1741 28.2727C94.5445 25.149 90.5379 24.266 86.1541 26.1839C82.6942 27.6935 80.6485 30.4754 79.7529 34.2354C80.4788 34.3303 81.1482 34.2733 81.8175 34.2828C82.4962 34.2923 83.175 34.2828 83.8538 34.2828H94.0355C94.7143 34.2828 95.3837 34.2828 96.1001 34.2828V39.4764C95.855 39.4859 95.6099 39.5049 95.3742 39.5049C90.4907 39.5049 85.6074 39.5049 80.7239 39.5049C80.4882 39.5049 80.2526 39.5238 80.0168 39.5429C80.2714 42.5432 83.7878 46.3031 87.3515 47.3665C91.2072 48.5154 94.6766 47.6799 97.8064 45.1162Z" fill="white"/>
<path d="M191.865 17.1544C191.865 20.4967 191.818 23.8388 191.874 27.1714C191.94 30.8743 188.894 34.2924 184.841 34.2354C183.728 34.2259 182.616 34.2354 181.503 34.2354C178.006 34.2164 175.065 31.5484 174.669 28.0449C174.631 27.7411 174.603 27.4372 174.603 27.1334C174.603 20.4681 174.593 13.8123 174.603 7.14712C174.603 4.57405 175.687 2.53271 177.836 1.10851C178.968 0.358424 180.231 0.0261104 181.579 0.00712101C182.672 -0.00237367 183.766 -0.00237367 184.859 0.00712101C188.376 0.0450997 191.176 2.44725 191.77 5.93179C191.836 6.30209 191.836 6.69137 191.836 7.07115C191.836 10.4323 191.836 13.7934 191.836 17.145L191.865 17.1544ZM190.949 15.5499C190.309 15.417 176.026 15.4359 175.602 15.5689C175.489 16.1956 175.517 18.9964 175.639 19.4047C176.243 19.5091 182.135 19.4902 182.625 19.3668V17.5627H183.512C183.539 18.1989 183.559 18.8161 183.578 19.4142C184.408 19.5377 190.507 19.4996 190.941 19.3763V15.5689L190.949 15.5499ZM190.969 23.402C190.978 22.3575 190.997 21.3892 190.969 20.4302C190.271 20.2972 176.026 20.3257 175.555 20.4681C175.555 21.4271 175.507 22.3956 175.592 23.3545C176.234 23.4779 179.024 23.459 179.514 23.326C179.533 22.8608 179.561 22.3766 179.58 21.8924H180.438V23.3165C180.957 23.4684 185.398 23.4779 185.906 23.326C185.925 22.8512 185.954 22.3671 185.972 21.8829H186.877V23.3925H190.978L190.969 23.402ZM184.002 29.4311C185.425 30.4281 186.792 31.387 188.169 32.3554C189.64 31.3585 190.611 30.0388 190.837 28.3203C190.997 27.0669 190.922 25.7852 190.949 24.5129C190.949 24.4654 190.903 24.4179 190.856 24.323C189.545 24.3325 188.216 24.285 186.849 24.3609C186.849 24.6173 186.849 24.7977 186.849 24.9876C186.849 25.6522 186.839 26.3168 186.849 26.9815C186.849 27.2758 186.764 27.4752 186.51 27.6366C185.954 27.9974 185.425 28.3866 184.879 28.7759C184.605 28.9659 184.332 29.1747 183.983 29.4216L184.002 29.4311ZM182.353 29.4406C182.126 29.2697 181.966 29.1368 181.795 29.0228C181.145 28.5671 180.504 28.1019 179.845 27.6651C179.618 27.5132 179.514 27.3328 179.524 27.0574C179.543 26.3738 179.524 25.6902 179.524 25.0066C179.524 24.8071 179.495 24.5983 179.487 24.3799H175.573C175.565 24.5983 175.536 24.7787 175.536 24.9686C175.536 25.7472 175.536 26.5258 175.536 27.3043C175.546 28.9374 176.139 30.3331 177.271 31.501C177.554 31.7952 177.893 32.0421 178.233 32.3365C179.618 31.368 180.957 30.4281 182.353 29.4501V29.4406ZM180.42 5.42857C178.855 5.42857 177.431 5.42857 175.998 5.42857C175.791 5.42857 175.687 5.55201 175.668 5.7419C175.621 6.11219 175.546 6.49198 175.536 6.87177C175.526 9.26443 175.536 11.6476 175.536 14.0402C175.536 14.2016 175.565 14.363 175.583 14.553C176.262 14.5815 176.884 14.6004 177.554 14.5434C177.562 14.2586 177.591 14.0402 177.591 13.8123C177.591 12.578 177.601 11.3437 177.591 10.1189C177.591 9.56825 177.638 9.11251 178.062 8.64727C178.807 7.82123 179.421 6.88126 180.08 5.97927C180.175 5.84635 180.259 5.70392 180.428 5.43808L180.42 5.42857ZM186.123 5.44757C186.434 5.88432 186.66 6.19765 186.897 6.51097C187.471 7.28953 188.009 8.08708 188.641 8.81818C188.904 9.122 188.999 9.38786 188.989 9.75814C188.979 11.1444 188.989 12.5306 188.989 13.9168C188.989 14.1162 189.018 14.3156 189.026 14.5245H190.949C190.959 14.2966 190.978 14.1067 190.978 13.9263C190.978 12.9768 190.978 12.0273 190.978 11.0779C190.978 9.69168 190.978 8.30546 190.978 6.91925C190.978 6.41603 190.941 5.90331 190.696 5.44757H186.114H186.123ZM187.527 8.98908C187.453 8.83716 187.434 8.76121 187.387 8.70424C186.642 7.6978 185.897 6.70087 185.161 5.69443C185.011 5.48554 184.832 5.40959 184.587 5.41908C183.72 5.42857 182.852 5.42857 181.984 5.41908C181.702 5.41908 181.532 5.53302 181.381 5.7514C180.693 6.70087 179.986 7.63134 179.288 8.58081C179.203 8.68524 179.156 8.82767 179.071 8.99857H187.527V8.98908ZM179.382 1.37435C179.411 1.47879 179.421 1.54525 179.448 1.58324C180.117 2.49472 180.797 3.40621 181.466 4.3177C181.608 4.51708 181.796 4.53608 182.013 4.53608C182.861 4.53608 183.71 4.52659 184.548 4.53608C184.85 4.53608 185.03 4.42214 185.199 4.18478C185.783 3.37772 186.397 2.58018 186.99 1.77313C187.066 1.66869 187.113 1.55476 187.179 1.44082C186.717 1.13698 186.133 0.956589 185.398 0.947094C183.965 0.928105 182.541 0.928105 181.108 0.947094C180.523 0.947094 179.958 1.09901 179.382 1.36486V1.37435ZM180.42 24.3609C180.42 25.0731 180.438 25.7377 180.42 26.3928C180.401 26.7726 180.514 27.0195 180.844 27.2378C181.523 27.6746 182.173 28.1589 182.843 28.624C182.965 28.7095 183.097 28.7665 183.228 28.8424C184.058 28.2633 184.85 27.6936 185.661 27.1429C185.878 27.0004 185.944 26.82 185.935 26.5732C185.925 25.9656 185.935 25.3579 185.935 24.7597C185.935 24.6363 185.888 24.5129 185.868 24.3704H180.438L180.42 24.3609ZM183.22 30.0102C182.098 30.6654 179.58 32.4789 179.316 32.8397C179.806 33.1055 180.335 33.2385 180.872 33.2669C181.815 33.3144 182.748 33.3239 183.691 33.3239C184.35 33.3239 185.011 33.3049 185.661 33.2574C186.16 33.2195 186.652 33.1151 187.189 32.8017C185.822 31.8428 184.521 30.9313 183.21 30.0102H183.22ZM184.737 9.98602H181.919C181.777 10.7456 181.815 14.1257 181.966 14.5339H184.737C184.737 13.0149 184.747 11.5336 184.737 9.98602ZM185.709 9.97652C185.557 10.7076 185.595 14.1542 185.746 14.5339C186.547 14.6289 187.641 14.6004 188.065 14.4485C188.065 12.9768 188.085 11.4862 188.056 9.97652H185.718H185.709ZM178.553 9.94804C178.431 10.8121 178.468 14.1067 178.591 14.5339H180.9V9.99551C180.721 9.97652 180.58 9.95754 180.428 9.94804C179.816 9.94804 179.194 9.94804 178.553 9.94804ZM176.111 4.46962C177.158 4.62153 179.995 4.56456 180.382 4.37467C179.75 3.52015 179.128 2.68461 178.478 1.81111C177.403 2.47574 176.648 3.31126 176.111 4.46012V4.46962ZM188.122 1.86808C187.462 2.55169 186.378 4.08034 186.236 4.54557C187.613 4.52659 188.96 4.58356 190.403 4.50759C189.885 3.33026 189.131 2.50422 188.122 1.86808Z" fill="white"/>
<path d="M143.69 113.905C143.605 113.554 143.53 113.25 143.444 112.898C143.973 112.898 144.444 112.898 144.916 112.898C145.566 112.898 145.754 112.709 145.764 112.044C145.764 111.503 145.764 110.952 145.764 110.364H139.033C138.816 111.019 138.637 111.655 138.392 112.262C138.146 112.879 137.788 113.44 137.288 113.962C137.016 113.715 136.752 113.487 136.468 113.231C136.526 113.136 136.563 113.051 136.619 112.984C137.553 111.854 137.967 110.544 137.967 109.092C137.967 107.99 137.967 106.888 137.967 105.787C137.967 105.626 137.939 105.464 137.92 105.179C136.902 106.357 135.922 107.391 134.743 108.322C134.489 108.009 134.253 107.705 133.989 107.363C135.968 105.74 137.609 103.898 138.854 101.552H134.461V100.451C134.649 100.432 134.847 100.404 135.045 100.404C136.271 100.404 137.496 100.404 138.721 100.404C139.495 100.404 139.382 100.48 139.684 99.7295C139.853 99.3117 140.004 98.8844 140.174 98.4287C140.541 98.4761 140.89 98.5142 141.323 98.5617C141.126 99.1693 140.947 99.7295 140.73 100.385C142.144 100.432 143.511 100.404 144.877 100.404C146.226 100.404 147.584 100.404 148.979 100.404V101.533H148.356C145.849 101.533 143.341 101.533 140.833 101.533C140.39 101.533 140.088 101.609 139.919 102.075C139.777 102.445 139.532 102.768 139.344 103.119C139.287 103.233 139.24 103.347 139.155 103.546H146.867C146.886 103.812 146.905 104.012 146.905 104.22C146.905 106.898 146.905 109.575 146.905 112.253C146.905 113.554 146.547 113.896 145.255 113.905C144.765 113.905 144.274 113.905 143.709 113.905H143.69ZM139.079 106.414H145.727V104.648C145.142 104.524 139.551 104.543 139.079 104.667V106.414ZM139.079 109.31C141.305 109.338 143.501 109.347 145.717 109.31V107.534H139.079V109.32V109.31Z" fill="white"/>
<path d="M45.5311 113.98V99.3305C45.9459 99.2166 58.5693 99.1881 59.2763 99.3021V113.953H58.2205C58.1922 113.734 58.1733 113.526 58.1545 113.335C57.7303 113.211 47.3318 113.184 46.6719 113.307C46.6436 113.497 46.6247 113.696 46.587 113.914C46.5493 113.934 46.5022 113.98 46.455 113.98C46.1722 113.98 45.8893 113.98 45.5311 113.98ZM46.653 100.346V112.12H58.1451V100.346H46.653Z" fill="white"/>
<path d="M114.946 101.448C115.2 100.964 115.521 100.831 116.03 100.974C117.227 101.315 118.434 101.61 119.631 101.933C119.933 102.018 120.215 102.028 120.508 101.904C121.206 101.61 121.903 101.335 122.601 101.05C122.752 100.983 122.884 100.888 123.016 100.755C122.328 100.66 121.64 100.679 120.961 100.679C120.263 100.679 119.565 100.679 118.867 100.679C118.189 100.679 117.51 100.679 116.831 100.679C116.153 100.679 115.436 100.679 114.738 100.679C114.051 100.679 113.353 100.679 112.626 100.679V99.7204H119.112C118.914 99.3027 118.764 98.9893 118.585 98.6095C118.99 98.543 119.348 98.4765 119.725 98.4102C119.933 98.8564 120.131 99.2646 120.339 99.7204H126.005V100.66H123.581C123.581 100.66 123.543 100.727 123.534 100.765C123.666 100.898 123.798 101.031 123.968 101.202C123.213 101.705 122.356 101.98 121.441 102.445C122.657 102.844 123.761 103.214 124.91 103.594C124.703 103.86 124.543 104.05 124.317 104.335H126.07V105.332H114.22C114.201 105.674 114.182 105.949 114.182 106.224C114.191 107.762 114.125 109.301 113.786 110.81C113.541 111.903 113.192 112.966 112.56 114C112.278 113.753 112.014 113.525 111.749 113.298C111.768 113.202 111.768 113.117 111.807 113.061C112.645 111.522 112.937 109.852 113.013 108.133C113.06 107.107 113.032 106.082 113.042 105.056C113.042 104.848 113.042 104.648 113.042 104.382H123.921C123.921 104.382 123.94 104.316 123.949 104.278C123.855 104.221 123.769 104.135 123.666 104.097C122.582 103.718 121.488 103.357 120.404 102.987C120.121 102.892 119.857 102.949 119.575 103.024C118.095 103.461 116.577 103.775 115.049 103.983C114.343 104.078 114.343 104.069 113.927 103.357C115.418 103.091 116.907 102.939 118.348 102.474C117.236 102.028 116.067 101.819 114.918 101.467L114.946 101.448Z" fill="white"/>
<path d="M99.3903 103.974C98.6927 104.182 98.0798 104.353 97.4765 104.553C97.3728 104.591 97.2785 104.752 97.2315 104.876C97.1843 104.989 97.2126 105.141 97.2126 105.274C97.2126 107.306 97.2126 109.338 97.2126 111.37C97.2126 111.484 97.2126 111.597 97.2126 111.711C97.2597 112.32 97.4954 112.566 98.1082 112.575C99.5035 112.585 100.899 112.585 102.294 112.575C102.925 112.575 103.199 112.357 103.303 111.73C103.416 111.094 103.472 110.458 103.567 109.756C103.906 109.861 104.236 109.956 104.584 110.06C104.547 110.961 104.462 111.807 104.226 112.633C104.047 113.288 103.586 113.592 102.954 113.667C102.69 113.696 102.426 113.687 102.162 113.687C100.729 113.687 99.296 113.658 97.863 113.696C96.7883 113.725 96.0907 113.316 96.0907 111.892C96.0907 109.822 96.0907 107.752 96.0907 105.683V104.999C95.6665 105.103 95.3271 105.189 94.9311 105.293V104.201C95.2894 104.078 95.6571 103.955 96.0812 103.812V100.318H97.1937V103.489C97.9668 103.261 98.6361 103.062 99.3715 102.844V98.5996H100.493C100.503 99.8718 100.512 101.125 100.522 102.483C101.71 102.132 102.822 101.809 104.02 101.457C103.991 103.708 103.727 105.854 103.283 108.038C102.925 107.933 102.605 107.847 102.256 107.743C102.389 106.917 102.529 106.138 102.643 105.35C102.746 104.591 102.832 103.822 102.935 102.929C102.068 103.185 101.323 103.413 100.512 103.651V110.335H99.4186C99.4092 110.136 99.3903 109.946 99.3808 109.747C99.3808 108.056 99.3808 106.366 99.3808 104.676C99.3808 104.477 99.3808 104.268 99.3808 103.993L99.3903 103.974Z" fill="white"/>
<path d="M29.6647 110.553C28.1751 109.983 26.6856 109.414 25.13 108.825C25.6674 107.933 26.1954 107.05 26.7705 106.072C25.3941 105.958 24.1118 106.081 22.792 105.996V104.904H23.4143C24.5456 104.904 25.6768 104.876 26.8081 104.914C27.2795 104.933 27.5246 104.762 27.7226 104.353C28.0715 103.622 28.4767 102.91 28.8728 102.16C29.2498 102.265 29.6081 102.369 30.0324 102.492C29.6929 103.309 29.231 104.021 28.8444 104.876C30.334 104.942 31.7576 104.895 33.1716 104.904C34.5858 104.904 35.9905 104.904 37.4424 104.904V106.005H34.2087C33.6147 107.543 32.8889 108.977 31.8424 110.298C33.6524 111.114 35.3777 111.939 37.0652 112.937C36.7918 113.298 36.5561 113.611 36.3205 113.915C34.5292 112.975 32.7852 112.053 31.0505 111.152C30.8808 111.275 30.7677 111.342 30.6734 111.427C29.1461 112.689 27.3643 113.364 25.4318 113.658C24.9321 113.735 24.423 113.743 23.9139 113.81C23.6122 113.849 23.4143 113.753 23.2728 113.478C23.1691 113.259 23.0371 113.06 22.8674 112.776C25.3563 112.67 27.6754 112.234 29.6647 110.734V110.563V110.553ZM26.7893 108.361C28.1468 108.854 29.4102 109.31 30.6923 109.766C31.6633 108.674 32.3515 107.458 32.8417 106.129C32.7663 106.072 32.7286 106.034 32.7003 106.034C31.2673 106.034 29.8438 106.015 28.4108 106.024C28.2976 106.024 28.1374 106.091 28.0808 106.186C27.6472 106.888 27.223 107.601 26.7798 108.351L26.7893 108.361Z" fill="white"/>
<path d="M162.903 99.2641H170.039C170.181 99.6629 170.238 104.999 170.106 106.366C169.917 106.376 169.719 106.404 169.53 106.404C167.928 106.404 166.325 106.404 164.723 106.404C164.515 106.404 164.317 106.423 164.072 106.433V112.206C165.1 111.958 166.034 111.531 167.033 111.123C167.136 111.493 167.221 111.806 167.315 112.167C165.873 112.813 164.393 113.25 162.837 113.677C162.752 113.402 162.658 113.136 162.592 112.87C162.573 112.794 162.592 112.661 162.658 112.614C162.95 112.395 162.903 112.082 162.903 111.778C162.903 107.847 162.903 103.916 162.903 99.9857V99.2451V99.2641ZM168.956 102.283C169.078 101.657 169.059 100.764 168.927 100.375H164.072V102.283H168.956ZM168.993 105.312V103.442C168.221 103.328 164.478 103.356 164.072 103.489V105.312H168.993Z" fill="white"/>
<path d="M115.125 109.841C114.879 109.623 114.644 109.414 114.352 109.157C115.455 108.293 116.219 107.201 116.756 105.9C117.067 106.024 117.341 106.128 117.652 106.252C117.529 106.584 117.415 106.878 117.302 107.164C117.745 107.296 119.462 107.324 120.187 107.21C120.215 106.822 120.234 106.413 120.263 105.986C120.611 105.815 120.961 105.891 121.366 105.929V107.268H125.731V108.293H121.403V109.897C122.705 109.936 123.996 109.897 125.325 109.926V110.923H121.413V112.547H126.542V113.516H114.578C114.559 113.354 114.541 113.211 114.541 113.06C114.541 112.907 114.559 112.766 114.568 112.556H120.197V110.943H116.285V109.936H120.187V108.303H119.094C118.434 108.303 117.774 108.322 117.114 108.303C116.756 108.293 116.52 108.388 116.303 108.691C115.992 109.138 115.624 109.546 115.125 109.86V109.841Z" fill="white"/>
<path d="M6.29405 99.2458V100.224H4.38024V101.695C4.91764 101.714 5.44555 101.733 6.01119 101.752V102.626C5.46441 102.654 4.92701 102.673 4.37086 102.702V104.06C4.90816 104.079 5.43618 104.107 6.01119 104.126V104.99H4.3991C4.30481 105.512 4.32367 105.968 4.38024 106.509H6.26571C6.31291 106.623 6.35063 106.68 6.35063 106.728C6.36949 108.607 6.37886 110.488 6.13382 112.348C5.99233 113.43 5.48327 113.867 4.3991 113.867C4.11628 113.867 3.83347 113.867 3.50349 113.867C3.41866 113.535 3.35266 113.241 3.26781 112.889C3.63549 112.889 3.92773 112.889 4.22938 112.889C4.76677 112.881 5.01193 112.7 5.17217 112.177C5.20988 112.054 5.2476 111.921 5.25697 111.789C5.30417 110.459 5.33241 109.139 5.37012 107.81C5.37012 107.753 5.35126 107.696 5.32303 107.563C3.84288 107.487 2.34392 107.563 0.863808 107.515C0.741253 107.078 0.712966 99.9009 0.826092 99.2363H6.29405V99.2458ZM3.30553 100.271C2.79644 100.214 2.32506 100.205 1.85369 100.271V101.695C2.36277 101.752 2.83415 101.752 3.30553 101.695V100.271ZM3.30553 106.5V105.057H1.86312V106.5H3.30553ZM1.83483 104.06H3.30553V102.721H1.83483V104.06Z" fill="white"/>
<path d="M79.6963 105.103C79.6774 105.435 79.6586 105.777 79.6304 106.1C79.1684 106.223 75.7368 106.242 75.058 106.128C75.0391 105.872 75.0109 105.597 74.9826 105.255C74.2378 105.825 73.5497 106.347 72.8143 106.907C72.5787 106.603 72.3806 106.356 72.1449 106.052C74.2662 104.723 75.7933 102.948 76.623 100.479C75.9348 100.479 75.3125 100.441 74.7092 100.507C74.5112 100.527 74.3415 100.83 74.087 101.068C74.615 101.334 75.058 101.552 75.5388 101.789C75.388 102.017 75.2749 102.207 75.1241 102.435C74.7375 102.255 74.3604 102.093 73.9927 101.913C73.7193 101.77 73.512 101.799 73.295 102.036C73.0877 102.274 72.8332 102.473 72.5503 102.729C72.3335 102.454 72.1449 102.217 71.9093 101.922C73.0217 101.011 73.8136 99.8999 74.2662 98.5137C74.6244 98.5516 74.9543 98.5802 75.322 98.6181C75.2372 98.9314 75.1806 99.1783 75.0957 99.5011H77.6317C77.7165 100.897 78.4519 101.913 79.159 102.967C79.8001 102.549 80.4789 101.343 80.5071 100.574C80.2055 100.574 79.9132 100.574 79.6115 100.574C79.3287 100.574 79.0552 100.574 78.7348 100.574V99.5581C79.6963 99.5581 80.6486 99.539 81.5913 99.5676C81.9212 100.564 81.3556 102.084 79.9698 103.878C80.6202 104.685 81.4876 105.245 82.3832 105.863C82.1852 106.157 81.9967 106.432 81.7987 106.727C80.9597 106.309 80.3374 105.673 79.6492 105.122C79.6115 105.055 79.5738 104.989 79.5267 104.932C78.6687 104.021 77.9805 102.986 77.4338 101.856C77.4054 101.799 77.3489 101.751 77.2735 101.647C77.0472 102.093 76.8587 102.501 76.6418 102.891C76.4156 103.28 76.1705 103.669 75.916 104.04C75.6613 104.4 75.388 104.733 75.0769 105.131C75.2749 105.15 75.3691 105.16 75.454 105.16C76.7078 105.16 77.9712 105.16 79.225 105.16C79.3758 105.16 79.5172 105.122 79.6681 105.103H79.6963Z" fill="white"/>
<path d="M162.026 99.2549C162.12 99.7106 162.093 100.128 161.941 100.546C161.451 101.837 160.971 103.138 160.461 104.42C160.32 104.781 160.329 105.037 160.556 105.35C161.225 106.3 161.753 107.325 161.941 108.493C161.97 108.684 161.989 108.873 161.989 109.063C161.989 110.164 161.574 110.725 160.508 110.971C160.037 111.075 159.547 111.104 159.019 111.18C158.878 110.762 158.756 110.402 158.632 110.031C159.123 109.993 159.557 109.993 159.981 109.927C160.593 109.832 160.811 109.548 160.819 108.92C160.819 108.142 160.565 107.42 160.188 106.755C159.868 106.195 159.5 105.673 159.104 105.066C159.717 103.584 160.415 102.056 160.895 100.337C159.962 100.328 159.085 100.337 158.152 100.337C158.132 100.622 158.105 100.878 158.105 101.135C158.105 105.161 158.105 109.186 158.105 113.212V113.981H157.012V99.2738H162.046L162.026 99.2549Z" fill="white"/>
<path d="M213.463 100.413C212.143 100.356 210.889 100.394 209.635 100.385C208.39 100.385 207.146 100.385 205.902 100.385H202.093V99.2832H214.556C214.566 99.4732 214.594 99.663 214.594 99.8434C214.594 103.907 214.594 107.961 214.594 112.025C214.594 112.139 214.594 112.253 214.594 112.367C214.538 113.279 214.047 113.81 213.133 113.857C212.322 113.895 211.511 113.857 210.644 113.857C210.55 113.516 210.465 113.174 210.352 112.766C211.011 112.766 211.615 112.766 212.209 112.766C213.236 112.766 213.463 112.548 213.463 111.503C213.463 108.009 213.463 104.515 213.463 101.03V100.413Z" fill="white"/>
<path d="M68.7981 100.375V113.829H67.7517V99.3206C68.1665 99.2068 71.2587 99.1687 72.0695 99.2826C72.1826 99.7005 72.1449 100.118 72.0129 100.536C71.6264 101.723 71.2492 102.919 70.8533 104.106C70.7497 104.419 70.759 104.666 70.9381 104.951C71.4755 105.806 71.9092 106.717 72.0129 107.742C72.06 108.208 71.9941 108.682 71.9091 109.147C71.8338 109.555 71.551 109.86 71.1739 110.031C70.6365 110.278 70.0709 110.392 69.4392 110.334C69.3355 109.992 69.2412 109.65 69.1281 109.261C69.4203 109.261 69.6466 109.271 69.8634 109.261C70.6459 109.205 71.0136 108.853 70.9476 108.055C70.9099 107.514 70.7685 106.973 70.5705 106.461C70.382 105.967 70.0897 105.511 69.8069 105.074C69.6466 104.828 69.6278 104.619 69.7221 104.343C70.1274 103.156 70.5045 101.97 70.891 100.773C70.9287 100.65 70.9476 100.517 70.9758 100.394C70.5328 100.242 69.3921 100.223 68.8076 100.375H68.7981Z" fill="white"/>
<path d="M82.7791 63.8672C85.2963 63.8956 87.0781 65.6902 87.0875 68.2158C87.0875 68.7379 87.0497 69.2792 86.9178 69.7919C86.4275 71.6718 84.9097 72.8682 82.9017 72.9346C80.4882 73.0105 78.8007 71.5863 78.3953 69.469C78.2069 68.5101 78.2446 67.5416 78.5839 66.6112C79.225 64.8546 80.7805 63.8387 82.7791 63.8577V63.8672ZM85.7865 68.3772C85.6922 67.9214 85.6357 67.3233 85.4283 66.782C84.9569 65.5667 83.9858 65.0351 82.732 65.0065C81.4499 64.9781 80.4223 65.6427 79.9603 66.782C79.5738 67.7316 79.5456 68.7 79.8378 69.678C80.2526 71.0546 81.2802 71.7953 82.7509 71.7857C84.1744 71.7857 85.202 70.9977 85.5697 69.6305C85.6639 69.2697 85.7017 68.8899 85.7865 68.3867V68.3772Z" fill="white"/>
<path d="M68.6757 64.0383C68.7794 64.0194 68.8454 63.9814 68.9208 63.9814C69.9578 63.9909 70.9854 64.0004 72.0224 64.0289C72.2487 64.0289 72.4655 64.0953 72.6823 64.1523C73.6251 64.4182 74.2944 64.9878 74.417 66.0133C74.5584 67.1241 74.2096 68.0356 73.2197 68.6338C73.0029 68.7667 72.7578 68.8712 72.5032 69.0041C73.3988 70.2764 74.2662 71.5201 75.1995 72.8495C74.6904 72.8495 74.2944 72.8969 73.9174 72.8304C73.7288 72.802 73.5308 72.6121 73.4083 72.4412C72.8143 71.6151 72.2393 70.7606 71.6642 69.9251C71.1552 69.1845 70.9382 69.0991 69.9201 69.3269C69.8635 70.4662 69.9295 71.6341 69.8824 72.8304H68.6757C68.5437 72.3842 68.5155 64.684 68.6568 64.0574L68.6757 64.0383ZM69.9201 65.0258C69.9201 66.1177 69.873 67.1621 69.9484 68.235C70.5518 68.235 71.0797 68.2824 71.5982 68.2161C71.9187 68.178 72.2581 68.0356 72.5316 67.8457C73.0877 67.4659 73.2197 66.8678 73.1161 66.2316C73.0218 65.624 72.6258 65.2631 72.0507 65.1113C71.372 64.9214 70.6837 64.9973 69.9201 65.0354V65.0258Z" fill="white"/>
<path d="M114.908 68.9953C115.813 70.2866 116.68 71.5209 117.613 72.8406C117.114 72.8406 116.728 72.8501 116.341 72.8406C116.067 72.8311 115.926 72.6127 115.785 72.4039C115.219 71.5779 114.607 70.7803 114.097 69.9163C113.673 69.2042 113.117 69.1283 112.334 69.2897V72.8122H111.033C111.014 72.6223 110.977 72.4418 110.977 72.2615C110.977 69.7169 110.977 67.1724 110.977 64.6372C110.977 64.5423 110.977 64.4473 110.977 64.3524C110.977 64.1245 111.08 63.9821 111.316 63.9917C112.466 64.0106 113.607 64.0391 114.757 64.0771C114.87 64.0771 114.974 64.1245 115.087 64.1626C116.124 64.4663 116.737 65.131 116.831 66.0899C116.935 67.1913 116.577 68.0649 115.615 68.644C115.398 68.7769 115.153 68.8814 114.908 69.0048V68.9953ZM112.353 68.2547C112.797 68.2547 113.164 68.2547 113.541 68.2547C113.73 68.2547 113.927 68.2642 114.097 68.2167C114.38 68.1313 114.681 68.0363 114.918 67.8654C115.851 67.2103 115.737 65.6816 114.738 65.226C113.975 64.8746 113.174 64.9981 112.353 65.036V68.2547Z" fill="white"/>
<path d="M182.361 112.12C183.201 112.252 188.876 111.635 189.988 111.303C189.423 110.164 188.744 109.11 188.027 108.018C188.386 107.895 188.707 107.79 189.074 107.667C190.366 109.47 191.441 111.388 192.383 113.449C192.176 113.553 192.015 113.648 191.845 113.725C191.695 113.791 191.534 113.857 191.327 113.943C191.073 113.429 190.818 112.927 190.582 112.443C187.292 112.793 184.04 113.135 180.721 113.477C180.627 113.05 180.542 112.699 180.457 112.338C182.437 110.733 183.436 108.483 184.53 106.309C184.851 105.663 185.133 105.008 185.464 104.296C185.822 104.41 186.17 104.524 186.604 104.657C185.435 107.305 184.097 109.803 182.361 112.12Z" fill="white"/>
<path d="M7.21789 109.679V108.815H8.84883C8.87717 108.493 8.9054 108.218 8.93374 107.914H9.8482C9.87643 108.17 9.90477 108.446 9.933 108.759H12.2522C12.2711 108.483 12.2993 108.227 12.3182 107.924H13.2326C13.261 108.189 13.2798 108.446 13.308 108.778C13.8454 108.797 14.3734 108.815 14.939 108.835V109.652H13.3174V110.715H15.3821C15.401 111.028 15.4198 111.284 15.4387 111.616C14.6279 111.693 13.836 111.616 12.9687 111.674C13.374 112.072 13.836 112.167 14.2131 112.405C14.5997 112.662 15.0049 112.889 15.4387 113.155C15.2124 113.42 15.0333 113.639 14.8636 113.857C13.9209 113.316 12.9969 112.784 12.0636 112.243C12.1579 112.092 12.2616 111.93 12.3653 111.769C11.9411 111.616 10.3761 111.607 9.83871 111.75C9.94249 111.912 10.0367 112.063 10.1687 112.281C9.23537 113.022 8.19839 113.553 7.01993 113.953C6.87855 113.677 6.74654 113.412 6.5863 113.117C7.09536 112.908 7.5667 112.728 8.01919 112.509C8.45292 112.31 8.89603 112.12 9.33903 111.655H6.74654V110.743H8.87717V109.689H7.22737L7.21789 109.679ZM9.96124 109.699C9.88591 110.06 9.83871 110.383 9.98958 110.696H12.2522V109.699H9.96124Z" fill="white"/>
<path d="M59.8138 72.8209H58.6354C58.5034 72.3747 58.4845 64.665 58.607 64.0478C58.7013 64.0289 58.8051 63.9814 58.9088 63.9814C59.8704 63.9814 60.832 63.9814 61.7936 64.0004C61.9445 64.0004 62.0952 64.0194 62.2461 64.0478C64.1881 64.3517 65.1875 66.2602 64.3202 68.0356C63.8205 69.061 62.906 69.4598 61.8407 69.5643C61.3316 69.6118 60.8226 69.5832 60.3134 69.6023C59.9081 69.6212 59.8609 69.6688 59.8516 70.077C59.8421 70.8366 59.8516 71.5961 59.8516 72.3558C59.8516 72.4981 59.8232 72.65 59.8044 72.84L59.8138 72.8209ZM59.8893 68.5103C60.7188 68.5958 61.4825 68.6433 62.2179 68.368C62.9155 68.1021 63.2266 67.5419 63.2548 66.8204C63.2831 66.1367 63.0474 65.5386 62.3875 65.2347C61.5862 64.8645 60.7472 65.0068 59.8893 65.0448V68.5103Z" fill="white"/>
<path d="M92.6402 69.6307V72.8114H91.3581C91.3392 72.6405 91.3015 72.4602 91.3015 72.2893C91.3015 69.7257 91.3015 67.1716 91.3015 64.608C91.3015 64.0194 91.3392 63.9909 91.8954 63.9814C92.6685 63.9814 93.4415 63.9814 94.2146 63.9814C94.4786 63.9814 94.7425 64.0099 95.0065 64.0478C96.9579 64.3327 97.9762 66.2886 97.0806 68.0736C96.5809 69.0705 95.6758 69.4598 94.6389 69.5643C94.2051 69.6118 93.7715 69.5832 93.3379 69.5928C93.1399 69.5928 92.9325 69.6212 92.6496 69.6402L92.6402 69.6307ZM92.6873 65.0068V68.5009C93.451 68.5863 94.1864 68.6149 94.8934 68.3964C95.6665 68.1496 96.0624 67.5134 96.0246 66.6399C95.9964 65.8139 95.591 65.3012 94.7991 65.0828C94.1203 64.8929 93.4322 65.0068 92.6873 64.9973V65.0068Z" fill="white"/>
<path d="M138.383 71.7575H142.342C142.54 72.1279 142.437 72.4412 142.427 72.745C141.993 72.8684 137.77 72.8969 137.119 72.7925C136.997 72.3842 136.959 64.9878 137.072 64.0478C137.27 64.0289 137.487 63.9814 137.694 63.9814C139.033 63.9814 140.372 63.9814 141.71 63.9814C142.503 63.9814 142.587 64.1143 142.342 65.0354H138.392C138.307 65.9942 138.354 66.8773 138.354 67.8173C139.438 67.9312 140.494 67.8173 141.578 67.9027V68.8807H138.392C138.307 69.8681 138.326 70.7796 138.383 71.767V71.7575Z" fill="white"/>
<path d="M102.709 67.817C103.793 67.9215 104.849 67.8075 105.943 67.893V68.8709H102.822C102.671 69.3646 102.653 71.1307 102.784 71.7479C104.076 71.8142 105.387 71.7479 106.744 71.7858V72.7448C106.33 72.8682 102.077 72.8872 101.399 72.7637C101.38 72.5834 101.342 72.3839 101.342 72.1846C101.342 69.678 101.342 67.1714 101.342 64.6648C101.342 64.5508 101.342 64.4369 101.342 64.3229C101.342 64.0952 101.473 63.9812 101.7 63.9717C101.794 63.9717 101.889 63.9717 101.983 63.9717C103.378 63.9717 104.773 63.9717 106.169 63.9717C106.338 63.9717 106.499 63.9906 106.734 64.0097C106.754 64.323 106.763 64.6173 106.781 64.9782C106.546 64.9971 106.348 65.0256 106.149 65.0256C105.226 65.0256 104.302 65.0256 103.378 65.0256C103.18 65.0256 102.972 65.054 102.709 65.0731C102.671 65.9941 102.69 66.8771 102.709 67.817Z" fill="white"/>
<path d="M29.5234 100.184C29.2594 99.6147 29.0426 99.1591 28.7974 98.6368C29.2217 98.5608 29.6176 98.4849 30.0513 98.3994C30.2399 98.8266 30.4095 99.216 30.5792 99.6147C30.8149 100.165 30.664 100.184 31.4371 100.184C33.0587 100.184 34.6801 100.184 36.3017 100.184C36.5185 100.184 36.7448 100.203 36.9899 100.222V103.717H35.8209V101.371H24.3477V103.726H23.2258C23.1127 103.318 23.0938 100.906 23.207 100.203C25.2527 100.175 27.3173 100.203 29.5139 100.184H29.5234Z" fill="white"/>
<path d="M94.5069 104.22H92.7817C92.6403 104.685 92.6121 109.157 92.744 109.822C93.4322 109.556 94.111 109.3 94.8464 109.014V110.126C93.1871 110.885 91.4619 111.483 89.633 111.958C89.567 111.74 89.5104 111.569 89.4632 111.388C89.4161 111.208 89.3878 111.028 89.3501 110.81C90.0666 110.619 90.7548 110.439 91.4241 110.259C91.5656 109.737 91.5656 104.752 91.4148 104.22H89.567V103.1H91.4902C91.5845 101.59 91.4713 100.137 91.5561 98.6562H92.6592V103.071H94.5069V104.22Z" fill="white"/>
<path d="M202.668 105.768H209.862C210.002 106.185 210.031 110.24 209.889 110.885H202.668V105.768ZM203.828 106.85C203.696 107.601 203.733 109.433 203.875 109.841H208.824V106.85H203.828Z" fill="white"/>
<path d="M145.962 71.8153C145.999 71.7299 146.018 71.6539 146.057 71.5969C146.443 70.8753 146.509 70.8563 147.197 71.3216C147.838 71.7583 148.517 71.9483 149.29 71.7869C149.903 71.6634 150.298 71.3121 150.45 70.6854C150.572 70.1537 150.44 69.698 149.979 69.3941C149.714 69.2232 149.413 69.0999 149.11 68.9859C148.639 68.8055 148.14 68.6725 147.677 68.4732C146.886 68.1409 146.396 67.5617 146.32 66.6787C146.226 65.6627 146.575 64.8462 147.432 64.2956C148.451 63.6403 150.28 63.7543 151.241 64.4949C151.543 64.7323 151.552 64.8651 151.26 65.3209C151.072 65.6153 150.94 65.6627 150.609 65.4539C150.035 65.093 149.421 64.8937 148.734 64.9981C148.262 65.0741 147.876 65.283 147.659 65.7292C147.414 66.2419 147.527 66.7641 147.988 67.0964C148.262 67.2863 148.583 67.4288 148.894 67.5522C149.328 67.7326 149.78 67.856 150.224 68.0364C151.015 68.3592 151.628 68.8625 151.713 69.7929C151.817 70.8944 151.505 71.8343 150.553 72.4609C149.639 73.0591 148.639 73.078 147.621 72.7933C146.999 72.6224 146.433 72.3375 145.991 71.8343L145.962 71.8153Z" fill="white"/>
<path d="M14.5431 107.41H7.51961C7.50076 106.024 7.51024 104.676 7.51961 103.328C7.93449 103.195 13.7134 103.157 14.5526 103.271V107.41H14.5431ZM11.5357 106.708C11.9223 106.708 12.2334 106.708 12.5539 106.708C12.8744 106.708 13.1855 106.708 13.5343 106.708V105.711C12.8556 105.682 12.2051 105.673 11.5357 105.711V106.698V106.708ZM13.5343 104.011H11.5452V104.97C12.2334 105.008 12.8744 105.018 13.5343 104.97V104.011ZM10.5553 105.739H8.54721V106.66H10.5553V105.739ZM8.54721 104.961H10.5458V104.021H8.54721V104.961Z" fill="white"/>
<path d="M124.326 72.8207H123.044C123.034 72.5928 123.007 72.3744 123.007 72.1561C123.007 70.0483 123.007 67.95 123.007 65.8421C123.007 65.6142 123.007 65.3959 123.007 65.13C122.064 64.9496 121.158 65.1491 120.244 64.9971V64.0287C120.479 64.0097 120.697 63.9717 120.913 63.9717C122.723 63.9717 124.524 63.9717 126.334 63.9717C127.183 63.9717 127.239 64.0476 127.032 65.0351C126.164 65.054 125.278 65.0731 124.326 65.0921V72.8207Z" fill="white"/>
<path d="M209.446 86.9404C210.437 86.9499 211.388 86.8359 212.331 87.0258C213.529 87.2632 214.359 88.0892 214.538 89.3046C214.612 89.8362 214.612 90.4059 214.538 90.9471C214.321 92.3333 213.368 93.2164 211.917 93.3492C211.116 93.4252 210.305 93.3587 209.494 93.3587C209.372 92.9504 209.333 88.1367 209.438 86.9308L209.446 86.9404ZM210.427 92.5137C211.031 92.5992 211.606 92.5707 212.172 92.4093C212.794 92.2195 213.208 91.8016 213.387 91.175C213.595 90.4629 213.585 89.7508 213.368 89.0482C213.227 88.5924 212.954 88.2412 212.52 88.0322C211.851 87.6999 211.153 87.7569 210.418 87.8233V92.5137H210.427Z" fill="white"/>
<path d="M144.519 88.5352H145.538C145.84 89.741 146.141 90.9563 146.481 92.295C146.858 90.9753 147.197 89.76 147.546 88.5446H148.668C148.997 89.7505 149.337 90.9848 149.705 92.314C150.035 91.0037 150.346 89.7884 150.657 88.5541H151.638C151.241 90.1777 150.761 91.7634 150.308 93.3774H149.158C148.818 92.1336 148.48 90.8804 148.13 89.627C148.102 89.627 148.064 89.6175 148.036 89.608C147.866 90.2252 147.706 90.8518 147.537 91.469C147.366 92.0862 147.187 92.7033 146.999 93.3679H145.849C145.406 91.7823 144.972 90.2063 144.51 88.5446L144.519 88.5352Z" fill="white"/>
<path d="M81.6101 107.837V108.863H77.7449C77.6695 109.461 77.7167 110.021 77.7072 110.582C77.7072 111.133 77.7072 111.683 77.7072 112.233V113.961H76.5853C76.4816 112.291 76.6042 110.62 76.5193 108.882H72.918V107.876C73.314 107.762 80.8749 107.733 81.6196 107.847L81.6101 107.837Z" fill="white"/>
<path d="M40.5724 95.5615H39.6297V88.5734C39.7711 88.5545 39.8936 88.526 40.0161 88.526C40.1293 88.526 40.2424 88.545 40.3556 88.545C40.4215 88.7348 40.4781 88.9057 40.5535 89.1241C40.6761 89.0197 40.7798 88.9438 40.8741 88.8583C41.7602 88.0892 43.165 88.336 43.6552 89.3994C44.1265 90.4154 44.1265 91.4693 43.6552 92.4852C43.1838 93.5107 41.8828 93.8145 40.9495 93.1689C40.8364 93.0834 40.7232 92.998 40.5535 92.884C40.5535 93.3777 40.5535 93.8145 40.5535 94.2418C40.5535 94.669 40.5535 95.0773 40.5535 95.5615H40.5724ZM40.563 90.9851C40.6007 91.2604 40.6101 91.5643 40.6949 91.8492C40.8364 92.3903 41.1663 92.6371 41.7131 92.6752C42.2128 92.7131 42.6087 92.4663 42.7973 91.9441C43.0236 91.2984 43.033 90.6433 42.8161 89.9977C42.6276 89.4375 42.241 89.2096 41.6377 89.2571C41.0909 89.295 40.7515 89.5989 40.6478 90.1686C40.6007 90.4249 40.6007 90.6907 40.5724 90.9851H40.563Z" fill="white"/>
<path d="M193.788 106.385C193.59 106.555 193.448 106.689 193.307 106.803C193.166 106.926 193.024 107.05 192.845 107.201C190.743 105.312 189.47 102.957 188.763 100.213H186.01V99.1309C187.208 99.1309 188.404 99.1309 189.668 99.1309C190.253 101.979 191.525 104.419 193.788 106.385Z" fill="white"/>
<path d="M166.118 86.9404C167.051 86.9499 167.947 86.8359 168.842 87.0258C169.738 87.2157 170.2 87.7379 170.285 88.6114C170.389 89.6179 170.012 90.368 169.172 90.7003C168.777 90.8522 168.334 90.8996 167.909 90.9566C167.673 90.9945 167.419 90.9566 167.098 90.9566C167.098 91.3838 167.08 91.7731 167.07 92.1625C167.07 92.5422 167.07 92.9125 167.07 93.3397H166.156C166.042 92.96 165.995 87.9658 166.108 86.9308L166.118 86.9404ZM167.107 90.0641C167.636 90.1401 168.097 90.1401 168.55 89.9787C169.04 89.8078 169.277 89.4279 169.258 88.8772C169.248 88.3551 169.003 88.0133 168.513 87.8708C168.06 87.7379 167.598 87.7379 167.107 87.8424V90.0641Z" fill="white"/>
<path d="M25.6864 90.9655V93.3488H24.7625C24.6116 92.9309 24.6022 87.519 24.7625 86.9398C25.6487 86.9398 26.5443 86.8353 27.4399 87.0253C28.2884 87.2056 28.7786 87.7278 28.8729 88.4969C28.9954 89.5603 28.6654 90.3199 27.8264 90.6712C27.421 90.8421 26.9591 90.8895 26.516 90.956C26.2803 90.9941 26.0258 90.956 25.6958 90.956L25.6864 90.9655ZM25.7053 90.0635C26.2237 90.1395 26.6952 90.1395 27.1382 89.9781C27.619 89.8072 27.8735 89.3989 27.8547 88.8768C27.8358 88.364 27.5908 88.0127 27.1006 87.8703C26.648 87.7374 26.186 87.7374 25.6958 87.8323V90.0635H25.7053Z" fill="white"/>
<path d="M0.119008 86.959H4.43681C4.60653 87.3292 4.51224 87.6426 4.29543 87.9654C3.4092 89.2662 2.53244 90.5669 1.65569 91.8677C1.54256 92.0386 1.42943 92.2095 1.25973 92.4754C2.40046 92.5703 3.45633 92.4659 4.54047 92.5419V93.3679C3.06038 93.4248 1.58026 93.3774 0.10015 93.3964C-0.0789682 92.9976 -0.00354733 92.6842 0.213287 92.3614C1.09946 91.0606 1.96679 89.7504 2.84354 88.4496C2.95668 88.2787 3.06981 88.1078 3.2395 87.842C2.15535 87.7471 1.15604 87.842 0.119008 87.7755V86.959Z" fill="white"/>
<path d="M140.061 90.4244C140.24 89.5982 139.891 89.1236 139.127 89.19C138.703 89.228 138.297 89.3799 137.836 89.4843C137.741 89.2945 137.656 89.095 137.534 88.8387C138.467 88.4304 139.363 88.2595 140.306 88.6108C140.72 88.7722 140.975 89.0856 141.07 89.5319C141.088 89.6078 141.117 89.6837 141.117 89.7502C141.117 90.937 141.117 92.1334 141.117 93.3582H140.447C140.381 93.1968 140.306 93.0068 140.202 92.7791C140.088 92.8645 139.995 92.9214 139.919 92.9974C139.392 93.5196 138.75 93.5765 138.072 93.4437C137.459 93.3202 137.1 92.8835 137.034 92.2473C136.959 91.5637 137.185 91.0225 137.76 90.7851C138.204 90.6047 138.703 90.5477 139.184 90.4623C139.476 90.4148 139.777 90.4338 140.061 90.4148V90.4244ZM140.088 91.0985C139.532 91.0604 139.005 91.032 138.515 91.2788C138.147 91.4592 137.996 91.839 138.099 92.2378C138.185 92.5512 138.43 92.7126 138.834 92.7315C139.74 92.76 140.23 92.1429 140.079 91.0985H140.088Z" fill="white"/>
<path d="M9.63137 91.1929H6.49201C6.42606 92.1233 6.92563 92.7119 7.80247 92.7024C8.32091 92.7024 8.83945 92.56 9.38622 92.4746V93.1867C8.48125 93.5665 7.55732 93.652 6.62401 93.2532C6.07724 93.0253 5.71894 92.5791 5.53984 92.0094C5.30417 91.2688 5.32303 90.5187 5.58693 89.7781C6.16205 88.1925 8.02866 88.1736 8.87716 88.8001C9.31079 89.123 9.55594 89.5598 9.62189 90.0914C9.65961 90.4237 9.62189 90.7655 9.62189 91.1929H9.63137ZM8.61315 90.4237C8.67921 89.6642 8.30205 89.1989 7.63275 89.1705C6.93511 89.1419 6.47315 89.6452 6.50149 90.4237H8.61315Z" fill="white"/>
<path d="M49.2268 91.1936H46.0215C45.946 92.181 46.6437 92.7507 47.4356 92.7032C47.9353 92.6747 48.4255 92.5513 48.9534 92.4659C48.9629 92.5608 48.9722 92.6652 48.9911 92.7791C49.0288 93.064 48.9157 93.2349 48.6329 93.3204C48.0107 93.5007 47.379 93.5577 46.738 93.4343C45.814 93.2539 45.239 92.6842 45.0316 91.7538C44.8902 91.1176 44.909 90.472 45.1259 89.8453C45.4747 88.8104 46.4457 88.2597 47.5487 88.4401C48.5952 88.6205 49.2079 89.3516 49.2363 90.4625C49.2363 90.6714 49.2363 90.8802 49.2363 91.1936H49.2268ZM48.1992 90.434C48.1992 89.5984 47.7938 89.1522 47.115 89.1712C46.4457 89.1996 46.0121 89.7219 46.0969 90.434H48.1992Z" fill="white"/>
<path d="M125.825 93.3672H125.175C125.099 93.1867 125.023 93.0063 124.92 92.7784C124.797 92.8735 124.712 92.9303 124.638 92.9968C124.109 93.5095 123.458 93.5665 122.799 93.4336C122.214 93.3197 121.846 92.8924 121.772 92.2942C121.677 91.5822 121.894 91.022 122.488 90.7751C122.931 90.5947 123.421 90.5283 123.901 90.4523C124.194 90.4048 124.496 90.4523 124.769 90.4523C124.976 89.6168 124.619 89.142 123.864 89.18C123.638 89.1894 123.421 89.2464 123.205 89.3034C123.007 89.3603 122.818 89.4363 122.582 89.5218C122.478 89.3034 122.384 89.104 122.289 88.9141C123.016 88.3539 124.467 88.2495 125.202 88.6862C125.513 88.8666 125.712 89.142 125.787 89.4838C125.834 89.7022 125.873 89.93 125.873 90.1579C125.882 91.1264 125.873 92.0854 125.873 93.0538C125.873 93.1488 125.844 93.2342 125.825 93.3577V93.3672ZM124.769 91.079C124.279 91.079 123.77 91.0409 123.289 91.2499C122.902 91.4208 122.723 91.7815 122.808 92.1708C122.884 92.5316 123.119 92.712 123.544 92.731C124.467 92.7689 124.996 92.0854 124.76 91.079H124.769Z" fill="white"/>
<path d="M38.3757 90.9655C38.3286 91.2789 38.3002 91.6017 38.2249 91.9149C37.9891 92.836 37.2726 93.4151 36.3111 93.4911C35.2269 93.5766 34.3784 93.1303 34.0014 92.2283C33.6526 91.4117 33.6526 90.5667 33.9637 89.7407C34.2088 89.0951 34.6802 88.6868 35.3401 88.5159C37.0653 88.0791 38.338 89.1235 38.3757 90.9655ZM37.3387 90.975C37.2821 90.6617 37.2538 90.3104 37.1501 89.9971C36.971 89.4749 36.5939 89.247 36.0094 89.2565C35.4532 89.2565 35.1044 89.4939 34.9252 90.0065C34.7084 90.6332 34.7084 91.2789 34.9252 91.9055C35.1044 92.4182 35.5192 92.6935 36.0566 92.6935C36.5939 92.6935 36.9993 92.4277 37.169 91.896C37.2633 91.6112 37.2821 91.3073 37.3481 90.975H37.3387Z" fill="white"/>
<path d="M15.1841 90.9651C15.1841 91.06 15.1841 91.155 15.1841 91.25C15.0992 92.959 13.638 93.937 12.0353 93.3482C11.3754 93.1013 10.9511 92.6171 10.7438 91.943C10.5364 91.2784 10.5364 90.5948 10.7438 89.9301C11.0549 88.9048 11.9599 88.3351 13.1101 88.4205C14.232 88.506 15.0049 89.256 15.1653 90.4049C15.1935 90.5948 15.1841 90.7847 15.203 90.9745C15.203 90.9745 15.203 90.9745 15.1935 90.9745L15.1841 90.9651ZM11.5923 90.9461C11.6676 91.3069 11.7148 91.6867 11.8468 92.0379C12.0164 92.4937 12.4218 92.6741 12.8838 92.6836C13.3458 92.6836 13.7512 92.5222 13.9491 92.0665C14.2697 91.3354 14.2791 90.5853 13.9491 89.8543C13.7417 89.3795 13.3269 89.2371 12.8272 89.2465C12.3464 89.256 11.9787 89.465 11.8185 89.9206C11.7053 90.234 11.6676 90.5758 11.5923 90.9366V90.9461Z" fill="white"/>
<path d="M195.674 91.184H192.468C192.411 92.0765 192.864 92.6462 193.675 92.6936C194.062 92.7127 194.457 92.6177 194.844 92.5608C195.003 92.5322 195.164 92.4753 195.324 92.4278C195.493 93.121 195.437 93.2254 194.824 93.3773C194.212 93.5197 193.599 93.5577 192.987 93.3963C192.232 93.1969 191.742 92.7222 191.507 91.972C191.27 91.2219 191.308 90.4719 191.581 89.7408C191.931 88.8104 192.816 88.3071 193.844 88.4306C194.853 88.5444 195.466 89.1332 195.617 90.1775C195.664 90.4814 195.654 90.8042 195.674 91.184ZM194.636 90.4244C194.589 89.5604 194.231 89.1616 193.57 89.1711C192.901 89.1711 192.477 89.6554 192.477 90.4244H194.636Z" fill="white"/>
<path d="M132.254 72.8209H131.057C130.916 72.4223 130.878 64.779 131.01 64.048C131.086 64.0289 131.171 63.9815 131.255 63.9815C132.453 63.934 132.283 64.0099 132.283 64.9119C132.283 67.2856 132.283 69.6593 132.283 72.033C132.283 72.2798 132.264 72.5172 132.245 72.8209H132.254Z" fill="white"/>
<path d="M88.577 91.1841H85.3528C85.2963 92.0766 85.7488 92.6463 86.569 92.6937C86.9556 92.7127 87.3515 92.6178 87.738 92.5609C87.8982 92.5418 88.0586 92.4849 88.2188 92.4374C88.3602 93.159 88.3225 93.2255 87.6909 93.3774C87.1158 93.5103 86.5407 93.5388 85.9562 93.4059C85.1265 93.216 84.5893 92.6937 84.3723 91.8772C84.1839 91.1841 84.2027 90.4815 84.4478 89.8074C84.7777 88.8579 85.6357 88.3357 86.6727 88.4212C87.7003 88.5066 88.3413 89.1048 88.5111 90.1682C88.5582 90.4625 88.5488 90.7664 88.577 91.1841ZM85.3528 90.4245H87.5212C87.5306 89.6555 87.1912 89.2188 86.569 89.1807C85.8902 89.1333 85.4377 89.57 85.3623 90.4245H85.3528Z" fill="white"/>
<path d="M168.663 110.078C169.493 111.227 170.473 112.101 171.661 112.822C171.435 113.164 171.227 113.468 171.002 113.819C168.653 112.423 167.221 110.363 166.287 107.837C166.58 107.666 166.853 107.514 167.146 107.353C167.457 107.989 167.749 108.578 168.031 109.157C168.653 109.006 168.758 108.919 170.483 107.229C170.681 107.496 170.889 107.752 171.124 108.055C170.502 108.844 169.662 109.499 168.673 110.078H168.663Z" fill="white"/>
<path d="M64.3861 91.1832H61.2751C61.1996 91.9712 61.539 92.465 62.199 92.6548C62.6892 92.7973 63.17 92.6834 63.6507 92.5694C63.8111 92.5314 63.9713 92.4839 64.1316 92.4365C64.2824 93.1485 64.2447 93.234 63.613 93.3764C63.0192 93.5189 62.4252 93.5473 61.8218 93.3954C61.0394 93.1961 60.5302 92.7118 60.304 91.9427C60.0966 91.2307 60.1061 90.5091 60.3511 89.8159C60.8037 88.5246 62.4347 87.993 63.5753 88.743C64.2729 89.1988 64.5935 90.1292 64.3767 91.1737L64.3861 91.1832ZM63.4434 90.4141C63.4245 89.5976 63.0569 89.1798 62.397 89.1703C61.737 89.1703 61.3222 89.6071 61.2751 90.4141H63.4434Z" fill="white"/>
<path d="M156.341 93.3773H155.672C155.597 93.1875 155.512 93.0071 155.418 92.7792C155.305 92.8741 155.201 92.9406 155.107 93.0166C154.55 93.5293 153.891 93.5863 153.203 93.4154C152.627 93.2729 152.326 92.8646 152.26 92.276C152.194 91.6683 152.307 91.0986 152.901 90.8328C153.335 90.6333 153.834 90.5574 154.305 90.4814C154.616 90.434 154.937 90.4719 155.229 90.4719C155.465 89.6459 155.107 89.1427 154.352 89.1997C153.928 89.2282 153.514 89.3801 153.042 89.494C152.958 89.3231 152.863 89.1332 152.74 88.8674C153.438 88.4971 154.154 88.3546 154.918 88.4591C155.917 88.6015 156.323 89.0762 156.341 90.1017C156.361 91.1746 156.341 92.2569 156.341 93.3868V93.3773ZM155.286 91.1081C154.739 91.0607 154.212 91.0416 153.72 91.279C153.372 91.4499 153.212 91.8013 153.277 92.181C153.343 92.5229 153.608 92.7127 154.023 92.7317C154.974 92.7792 155.521 91.9816 155.276 91.1081H155.286Z" fill="white"/>
<path d="M99.9088 89.4942C99.8239 89.2948 99.7296 89.0954 99.6166 88.8295C100.559 88.4212 101.465 88.2408 102.416 88.6207C102.898 88.82 103.161 89.2188 103.17 89.722C103.199 90.9089 103.17 92.1052 103.17 93.349C102.954 93.3585 102.756 93.368 102.548 93.3869C102.455 93.1781 102.369 92.9977 102.266 92.7793C102.153 92.8648 102.068 92.9123 101.992 92.9883C101.446 93.5104 100.785 93.5674 100.098 93.4155C99.5223 93.2825 99.1923 92.8743 99.1263 92.3046C99.0603 91.6779 99.1735 91.1273 99.7768 90.795C100.238 90.548 100.738 90.4722 101.247 90.4531C101.539 90.4436 101.842 90.4531 102.115 90.4531C102.294 89.5511 101.926 89.0954 101.134 89.1809C100.748 89.2283 100.371 89.3612 99.8993 89.4846L99.9088 89.4942ZM102.134 91.1178C102.077 91.1082 102.002 91.0798 101.936 91.0798C101.691 91.0798 101.446 91.0798 101.201 91.1082C100.983 91.1463 100.757 91.2032 100.559 91.2982C100.22 91.4691 100.06 91.8584 100.154 92.2096C100.238 92.5325 100.483 92.7034 100.87 92.7318C101.766 92.7888 102.416 92.0577 102.124 91.1178H102.134Z" fill="white"/>
<path d="M110.524 90.8991C110.524 90.8421 110.524 90.7851 110.524 90.7283C110.581 88.6489 112.287 88.1362 113.616 88.5445C114.389 88.7818 114.86 89.361 114.992 90.1396C115.087 90.6902 115.087 91.2884 114.983 91.8296C114.757 92.9595 113.861 93.5577 112.626 93.4912C111.533 93.4342 110.722 92.6842 110.561 91.5827C110.524 91.3548 110.524 91.127 110.514 90.8991C110.514 90.8991 110.514 90.8991 110.524 90.8991ZM114.107 90.9466C114.041 90.6333 114.012 90.2914 113.899 89.9781C113.72 89.4749 113.324 89.2471 112.749 89.2566C112.202 89.2661 111.844 89.5034 111.675 90.0066C111.457 90.6333 111.457 91.2694 111.675 91.8961C111.854 92.4278 112.297 92.7126 112.843 92.6936C113.38 92.6747 113.777 92.3993 113.937 91.8676C114.022 91.5827 114.05 91.279 114.107 90.9466Z" fill="white"/>
<path d="M185.51 90.462C185.68 89.5505 185.312 89.1042 184.521 89.1897C184.134 89.2372 183.757 89.3701 183.304 89.4841C183.22 89.3132 183.125 89.1042 182.993 88.8289C183.926 88.4207 184.822 88.2498 185.755 88.601C186.265 88.8004 186.529 89.1992 186.547 89.7404C186.576 90.5189 186.576 91.288 186.585 92.0666C186.585 92.4749 186.585 92.8927 186.585 93.3389H185.907C185.831 93.168 185.746 92.9876 185.652 92.7692C185.548 92.8451 185.464 92.8927 185.407 92.9496C184.916 93.4718 184.285 93.5383 183.634 93.4433C183.012 93.3578 182.607 92.9306 182.512 92.3325C182.399 91.6014 182.625 91.0222 183.229 90.7659C183.653 90.5854 184.134 90.5189 184.587 90.4525C184.879 90.405 185.18 90.4525 185.51 90.4525V90.462ZM185.52 91.0887C185.285 91.0887 185.077 91.0696 184.879 91.0887C184.587 91.1266 184.276 91.1646 184.002 91.2691C183.615 91.421 183.455 91.8102 183.549 92.1995C183.634 92.5508 183.879 92.7218 184.303 92.7313C185.209 92.7502 185.661 92.1616 185.52 91.0887Z" fill="white"/>
<path d="M211.606 102.597V103.603H201.433V102.597H211.606Z" fill="white"/>
<path d="M120.592 93.3679H119.659C119.641 93.216 119.612 93.0737 119.612 92.9312C119.612 92.1906 119.612 91.4501 119.612 90.7095C119.612 90.5576 119.612 90.4056 119.612 90.2537C119.575 89.6556 119.33 89.3422 118.867 89.2663C118.208 89.1618 117.67 89.4182 117.5 89.9879C117.397 90.3297 117.368 90.6904 117.35 91.0513C117.331 91.8108 117.35 92.5609 117.35 93.3585H116.388V88.5542H117.086C117.142 88.6966 117.218 88.8675 117.302 89.0763C117.397 89.0099 117.491 88.9624 117.566 88.8959C118.226 88.3452 118.971 88.2978 119.744 88.5826C120.329 88.801 120.574 89.3042 120.584 89.8834C120.611 91.0227 120.584 92.1526 120.584 93.3679H120.592Z" fill="white"/>
<path d="M157.869 88.5439H158.576C158.642 88.7148 158.708 88.8858 158.793 89.1041C158.906 89.0187 158.991 88.9522 159.075 88.8858C159.745 88.3446 160.49 88.2971 161.253 88.6009C161.875 88.8573 162.073 89.408 162.093 90.0347C162.112 91.0031 162.093 91.9715 162.093 92.94C162.093 93.0729 162.073 93.1963 162.064 93.3673H161.13C161.122 93.1868 161.103 93.0254 161.093 92.8545C161.093 92.1139 161.093 91.3734 161.093 90.6328C161.093 90.4998 161.093 90.367 161.093 90.234C161.037 89.6359 160.792 89.332 160.32 89.2655C159.67 89.1801 159.17 89.4175 158.991 89.9587C158.887 90.2624 158.849 90.5853 158.84 90.9081C158.822 91.5348 158.84 92.1614 158.84 92.788C158.84 92.9685 158.822 93.1584 158.812 93.3673H157.879V88.5439H157.869Z" fill="white"/>
<path d="M17.4089 93.3669H16.4851V88.5531C16.6076 88.5436 16.7208 88.5247 16.8245 88.5247C16.9376 88.5247 17.0508 88.5247 17.1828 88.5436C17.2487 88.724 17.3147 88.8949 17.3996 89.1038C17.5316 88.9993 17.6446 88.9044 17.7672 88.8189C18.446 88.3442 19.1719 88.3062 19.9073 88.6196C20.4352 88.8475 20.6708 89.3221 20.6803 89.8539C20.718 91.0027 20.6897 92.161 20.6897 93.3574H19.7564C19.747 93.1865 19.7187 93.0251 19.7187 92.8637C19.7187 92.161 19.7187 91.4585 19.7187 90.7559C19.7187 90.585 19.7187 90.4141 19.6998 90.2432C19.6244 89.5975 19.3887 89.3221 18.8797 89.2652C18.1915 89.1893 17.7295 89.4551 17.5598 90.0532C17.4844 90.3192 17.4467 90.6134 17.4467 90.8888C17.4278 91.5154 17.4467 92.1421 17.4467 92.7688C17.4467 92.9586 17.4278 93.139 17.4184 93.3669H17.4089Z" fill="white"/>
<path d="M93.6962 88.5441H94.4315C94.4976 88.7245 94.5635 88.8954 94.6389 89.1138C94.7992 88.9808 94.9312 88.8574 95.0914 88.7529C95.7702 88.3352 96.4773 88.3162 97.1937 88.639C97.4954 88.7815 97.7029 89.0378 97.816 89.3512C97.882 89.5315 97.9386 89.7214 97.9386 89.9019C97.9479 91.0412 97.9386 92.1711 97.9386 93.3579H97.0052C96.9864 93.2154 96.958 93.0731 96.958 92.9212C96.958 92.1996 96.958 91.4779 96.958 90.7563C96.958 90.5854 96.958 90.4145 96.9392 90.2437C96.8639 89.598 96.6281 89.3131 96.119 89.2657C95.4402 89.1897 94.9689 89.4556 94.7992 90.0633C94.7238 90.3196 94.6955 90.5854 94.686 90.8513C94.6672 91.4969 94.686 92.1426 94.6767 92.7882C94.6767 92.9781 94.6578 93.1585 94.6483 93.3768H93.715C93.6679 91.7818 93.6962 90.1867 93.6962 88.5536V88.5441Z" fill="white"/>
<path d="M76.2082 93.3675H75.3409C75.209 92.9782 75.1712 89.2659 75.3031 88.5537H75.9631C76.0291 88.7246 76.0951 88.8955 76.1516 89.0285C76.557 88.8385 76.9247 88.6297 77.3206 88.4873C77.726 88.3448 78.1409 88.4208 78.5368 88.5632C78.9988 88.7246 79.291 89.0569 79.3947 89.5412C79.4513 89.7785 79.489 90.0254 79.489 90.2723C79.4985 91.1837 79.489 92.0952 79.489 93.0067C79.489 93.1207 79.4701 93.2251 79.4513 93.377H78.5179C78.4991 93.1777 78.4802 92.9972 78.4802 92.8168C78.4802 92.1522 78.4802 91.4876 78.4802 90.823C78.4802 90.6521 78.4802 90.4811 78.4709 90.3102C78.4237 89.6266 78.188 89.3322 77.6506 89.2753C76.9624 89.2089 76.5193 89.4652 76.3402 90.0728C76.2648 90.3197 76.2366 90.5951 76.2366 90.8514C76.2177 91.4971 76.2366 92.1427 76.2366 92.7884C76.2366 92.9782 76.2177 93.1586 76.2082 93.377V93.3675Z" fill="white"/>
<path d="M184.474 99.6437C183.408 102.549 182.013 105.17 179.712 107.278C179.411 107.021 179.128 106.784 178.779 106.489C179.882 105.474 180.797 104.363 181.56 103.128C182.314 101.904 182.89 100.593 183.389 99.207C183.766 99.3589 184.087 99.4918 184.464 99.6437H184.474Z" fill="white"/>
<path d="M206.44 93.3774H205.45V87.8135H203.564V86.959H208.306V87.785H206.458C206.42 89.6744 206.458 91.4975 206.43 93.3774H206.44Z" fill="white"/>
<path d="M133.528 87.7945H131.651V86.959H136.384V87.785H134.545V93.3394H133.518V87.785L133.528 87.7945Z" fill="white"/>
<path d="M68.8453 88.7813C68.7133 89.0662 68.619 89.2655 68.5247 89.4745C68.1665 89.3795 67.8366 89.275 67.5066 89.2276C67.252 89.1896 66.9786 89.2086 66.7335 89.275C66.6015 89.313 66.4224 89.4745 66.4036 89.5978C66.3847 89.7498 66.479 89.9777 66.6015 90.0821C66.7995 90.2435 67.0635 90.3385 67.2992 90.4524C67.6197 90.6043 67.9591 90.7277 68.2702 90.8986C68.7699 91.174 68.9584 91.6202 68.9113 92.1804C68.8641 92.7122 68.6002 93.0824 68.1288 93.2628C67.2331 93.6142 66.3375 93.5572 65.4231 93.2154V92.4083C65.6022 92.4558 65.753 92.5127 65.9039 92.5317C66.3093 92.5982 66.7147 92.6741 67.1295 92.7122C67.2897 92.7217 67.4689 92.6741 67.6197 92.5982C67.9968 92.4178 68.0722 91.9811 67.7423 91.7247C67.5255 91.5537 67.2615 91.4398 67.0069 91.3165C66.6863 91.1551 66.3564 91.0316 66.0359 90.8607C65.5269 90.5854 65.3476 90.1391 65.4042 89.5789C65.4608 89.0282 65.8002 88.7339 66.281 88.5725C67.1389 88.2971 67.978 88.3826 68.8547 88.7813H68.8453Z" fill="white"/>
<path d="M177.243 88.5352H178.299C178.732 89.7789 179.166 91.0418 179.637 92.39C180.09 91.0702 180.514 89.8264 180.957 88.5541H182.022C181.41 90.1682 180.815 91.7538 180.203 93.3679H179.081C178.487 91.7918 177.883 90.2063 177.251 88.5352H177.243Z" fill="white"/>
<path d="M11.5829 98.5234H12.469C12.5067 98.8082 12.5351 99.0646 12.5728 99.3779C13.3175 99.3209 14.0434 99.2545 14.8165 99.1975V99.9951C14.0811 100.071 13.3457 100.157 12.5351 100.242C12.5351 100.622 12.5351 100.973 12.5351 101.324C12.5444 101.6 12.7047 101.733 12.9687 101.742C12.9876 101.742 13.0064 101.742 13.0253 101.742C14.3263 101.733 14.1942 101.885 14.5619 100.679C14.7787 100.736 15.005 100.802 15.2502 100.869C15.3444 101.353 15.2125 101.79 14.9956 102.188C14.9202 102.331 14.7222 102.464 14.5526 102.492C13.77 102.654 12.9781 102.663 12.2051 102.511C11.7525 102.426 11.5075 102.131 11.498 101.676C11.4791 100.669 11.498 99.6723 11.498 98.6658C11.498 98.6373 11.5357 98.5994 11.5734 98.5329L11.5829 98.5234Z" fill="white"/>
<path d="M199.378 86.959H200.321C200.387 87.5476 200.34 88.1553 200.349 88.7535C200.349 89.3802 200.349 90.0067 200.349 90.6334C200.349 91.2601 200.349 91.8392 200.349 92.5039H203.045C203.064 92.8172 203.084 93.0641 203.092 93.3584H199.368V86.959H199.378Z" fill="white"/>
<path d="M104.802 89.3136C104.557 89.2851 104.397 89.2662 104.208 89.2377C104.094 89.0288 104.104 88.8295 104.349 88.7344C104.782 88.5635 104.953 88.2217 105.084 87.804C105.216 87.3768 105.235 87.3862 105.772 87.4717C105.791 87.7755 105.811 88.0888 105.838 88.4781C106.272 88.497 106.697 88.5161 107.187 88.5446C107.197 88.7535 107.205 88.9623 107.224 89.2472H105.943C105.877 89.3611 105.83 89.4086 105.83 89.456C105.82 90.2916 105.791 91.1271 105.82 91.9532C105.838 92.4848 106.141 92.7222 106.678 92.6937C106.847 92.6842 107.008 92.6558 107.215 92.6272V93.3299C107.092 93.3678 106.97 93.4248 106.847 93.4438C105.782 93.6242 104.773 93.4343 104.802 91.8012C104.821 90.9847 104.802 90.1776 104.802 89.3136Z" fill="white"/>
<path d="M188.15 89.3137C187.924 89.2852 187.745 89.2663 187.584 89.2377C187.434 88.9719 187.527 88.801 187.754 88.7155C188.188 88.5636 188.33 88.2218 188.452 87.823C188.583 87.3863 188.602 87.3958 189.149 87.4527C189.178 87.7755 189.215 88.0983 189.253 88.4971H190.564V89.2377H189.234C189.225 89.5321 189.205 89.7505 189.205 89.9688C189.205 90.5575 189.205 91.1462 189.205 91.7348C189.215 92.5229 189.479 92.7412 190.261 92.6463C190.356 92.6368 190.45 92.6273 190.591 92.6084V93.2919C190.158 93.5198 189.668 93.5198 189.187 93.4249C188.706 93.33 188.386 93.0166 188.282 92.5229C188.235 92.2856 188.206 92.0387 188.206 91.7918C188.197 91.1462 188.206 90.5005 188.206 89.8549C188.206 89.665 188.188 89.4846 188.178 89.2852L188.15 89.3137Z" fill="white"/>
<path d="M55.4677 89.2564C55.4677 90.2438 55.4488 91.1269 55.4677 92.0099C55.4865 92.4846 55.7883 92.7031 56.2785 92.684C56.467 92.684 56.6461 92.6461 56.8724 92.6176V93.3107C56.4387 93.5291 55.9862 93.5386 55.5431 93.4626C54.8549 93.3487 54.4873 92.8739 54.4684 92.0764C54.4496 91.3548 54.4684 90.6331 54.4684 89.9115C54.4684 89.7217 54.4684 89.5413 54.4684 89.3229C54.2421 89.285 54.063 89.2564 53.8462 89.228C53.7519 89.019 53.7519 88.8197 53.997 88.7248C54.4401 88.5634 54.6003 88.212 54.7323 87.7942C54.8549 87.367 54.8832 87.3765 55.4206 87.4714C55.4394 87.7753 55.4583 88.0981 55.4772 88.4779C55.9108 88.4969 56.335 88.5158 56.797 88.5348V89.2469H55.4583L55.4677 89.2564Z" fill="white"/>
<path d="M6.86918 101.894C7.68934 101.818 8.47178 101.743 9.28257 101.667V100.176H7.09537V99.3403H9.28257C9.3108 99.046 9.33914 98.8276 9.358 98.5713H10.3102V101.458H10.9135V102.16C9.65025 102.502 8.34926 102.606 6.9917 102.73C6.9445 102.436 6.90679 102.189 6.8597 101.894H6.86918Z" fill="white"/>
<path d="M83.4862 92.6179V93.3015C83.0431 93.5389 82.5718 93.5389 82.1098 93.4534C81.5818 93.3585 81.2331 93.0262 81.1482 92.4755C81.0916 92.1052 81.0822 91.7254 81.0727 91.3456C81.0634 90.681 81.0727 90.0259 81.0727 89.3327C80.8559 89.2948 80.6768 89.2663 80.4977 89.2378C80.394 89.029 80.394 88.8295 80.6108 88.7441C81.0822 88.5732 81.2331 88.1934 81.365 87.7661C81.4781 87.3864 81.5065 87.3959 82.0344 87.4908C82.0626 87.8136 82.091 88.1459 82.1192 88.5162H83.4297V89.2663H82.1003C82.091 89.5701 82.0721 89.8075 82.0721 90.0543C82.0721 90.624 82.0626 91.1937 82.0721 91.7634C82.091 92.5515 82.3549 92.7699 83.1279 92.6654C83.2222 92.6559 83.3165 92.6464 83.4674 92.6274L83.4862 92.6179Z" fill="white"/>
<path d="M127.372 86.5215H128.267C128.399 86.9298 128.427 92.6551 128.305 93.3576H127.372C127.352 91.0694 127.352 88.8192 127.372 86.5215Z" fill="white"/>
<path d="M90.7642 93.3777H89.8026V88.5639H90.5191C90.5756 88.7918 90.6322 89.0196 90.6888 89.2856C91.0093 89.0291 91.2828 88.7728 91.5939 88.5924C91.905 88.4025 92.2632 88.374 92.7063 88.4975C92.6779 88.7728 92.6591 89.0482 92.6308 89.3805C92.4423 89.3805 92.282 89.3805 92.1218 89.3805C91.4241 89.4089 90.9527 89.8077 90.8208 90.4913C90.7736 90.7287 90.7642 90.9755 90.7642 91.2224C90.7642 91.925 90.7642 92.6182 90.7642 93.3872V93.3777Z" fill="white"/>
<path d="M172.519 93.3678H171.567V88.5445H172.274C172.33 88.7724 172.388 89.0003 172.472 89.3231C173.018 88.744 173.566 88.2122 174.451 88.5066C174.433 88.7724 174.414 89.0382 174.395 89.3611C174.188 89.3611 174.009 89.3611 173.821 89.3611C173.207 89.3991 172.755 89.7598 172.594 90.358C172.528 90.6144 172.51 90.8802 172.51 91.1461C172.501 91.8677 172.51 92.5798 172.51 93.3583L172.519 93.3678Z" fill="white"/>
<path d="M30.1361 88.554C30.287 88.535 30.3718 88.516 30.4661 88.516C30.5981 88.516 30.7206 88.5255 30.8715 88.535C30.9376 88.7819 30.9941 89.0192 31.0695 89.2756C31.3712 89.0382 31.6352 88.7724 31.9463 88.592C32.2763 88.4021 32.6439 88.3357 33.0681 88.516C33.0398 88.7914 33.021 89.0573 32.9927 89.361C32.8324 89.361 32.7193 89.361 32.6062 89.361C31.6634 89.2945 31.1167 90.0921 31.126 90.8613C31.1355 91.4878 31.126 92.1145 31.126 92.7317C31.126 92.9216 31.126 93.1019 31.126 93.3393H30.155C30.1079 91.7632 30.1456 90.1586 30.1268 88.5445L30.1361 88.554Z" fill="white"/>
<path d="M50.5466 88.544H51.2065C51.2725 88.8004 51.3385 89.0283 51.4233 89.3511C51.9419 88.7054 52.5075 88.2782 53.4031 88.487C53.3843 88.7624 53.356 89.0377 53.3372 89.3321C53.1768 89.3416 53.0448 89.3606 52.9223 89.3606C52.0173 89.389 51.4988 89.9018 51.4893 90.8322C51.4799 91.4779 51.4893 92.1235 51.4893 92.7692C51.4893 92.959 51.4704 93.1394 51.4611 93.3578H50.6032C50.4617 92.978 50.4335 89.2467 50.5655 88.5345L50.5466 88.544Z" fill="white"/>
<path d="M72.5975 86.959H73.4649C73.6063 87.3578 73.6534 92.1905 73.5308 93.3489H72.5975V86.959Z" fill="white"/>
<path d="M142.682 93.3672V88.5439H143.615C143.671 90.1485 143.623 91.7436 143.643 93.3672H142.682Z" fill="white"/>
<path d="M57.9471 88.5446H58.9182C58.9465 90.1303 58.9182 91.7159 58.937 93.3584C58.6165 93.3679 58.3243 93.387 57.9755 93.3965C57.9094 91.7729 57.966 90.1872 57.9471 88.5352V88.5446Z" fill="white"/>
<path d="M109.233 93.3957C109.006 93.3957 108.846 93.3957 108.677 93.3957C108.564 93.3957 108.459 93.3767 108.319 93.3577V88.5439H109.242V93.3862L109.233 93.3957Z" fill="white"/>
<path d="M175.526 88.5439H176.347C176.469 88.9427 176.489 92.75 176.366 93.3672H175.546C175.413 92.9495 175.394 89.161 175.526 88.5439Z" fill="white"/>
<path d="M74.153 109.907C74.3982 110.021 74.6622 110.154 74.9733 110.296C74.3982 111.521 73.6911 112.594 72.7861 113.591C72.4655 113.363 72.1733 113.154 71.9282 112.983C72.6636 111.958 73.3799 110.961 74.1436 109.897L74.153 109.907Z" fill="white"/>
<path d="M79.1779 110.325C79.4418 110.154 79.6869 110.002 79.9886 109.803C80.7428 110.829 81.4499 111.863 82.0626 113.002C81.7515 113.221 81.4876 113.411 81.2047 113.611C80.5259 112.509 79.866 111.436 79.1779 110.325Z" fill="white"/>
<path d="M0.646998 108.465C0.750706 108.465 0.826128 108.456 0.89212 108.465C1.00525 108.493 1.10894 108.531 1.27864 108.588C1.16552 110.126 0.995817 111.655 0.712991 113.202C0.571588 113.165 0.477309 113.146 0.392459 113.107C0.288761 113.07 0.185053 113.022 0.0436401 112.966C0.241617 111.465 0.439593 109.974 0.637569 108.465H0.646998Z" fill="white"/>
<path d="M2.60793 112.679C2.42881 112.708 2.34396 112.737 2.24969 112.746C2.17427 112.746 2.10828 112.746 2.00458 112.727C1.9103 111.36 1.82545 110.002 1.73119 108.606C1.9103 108.587 2.07058 108.569 2.27798 108.55C2.50423 109.936 2.51366 111.284 2.59851 112.689L2.60793 112.679Z" fill="white"/>
<path d="M3.95605 111.779C3.73923 111.807 3.5601 111.826 3.38098 111.845C3.21129 110.687 3.05102 109.575 2.88133 108.427C3.03216 108.398 3.19243 108.369 3.38098 108.332C3.77693 109.452 3.86179 110.592 3.95605 111.779Z" fill="white"/>
<path d="M74.2473 102.824C74.3321 103.071 74.3887 103.242 74.4641 103.489C73.7288 103.84 72.984 104.087 72.1638 104.286C72.079 104.03 72.0036 103.802 71.9187 103.546C72.7012 103.299 73.4459 103.071 74.2473 102.824Z" fill="white"/>
<path d="M5.19103 110.895C4.97422 110.99 4.82335 111.056 4.59717 111.142C4.39921 110.192 4.21063 109.29 4.01263 108.322C4.19177 108.264 4.35201 108.218 4.59717 108.15C4.8045 109.091 4.99308 109.983 5.19103 110.895Z" fill="white"/>
<path d="M143.681 87.1683C143.681 87.5386 143.492 87.7285 143.133 87.7285C142.804 87.7285 142.596 87.5386 142.587 87.2158C142.568 86.874 142.775 86.6367 143.115 86.6272C143.464 86.6081 143.681 86.817 143.681 87.1683Z" fill="white"/>
<path d="M58.9746 87.1577C58.9746 87.5185 58.7861 87.7274 58.4278 87.7179C58.079 87.7179 57.8622 87.4995 57.8622 87.1577C57.8622 86.8444 58.079 86.6355 58.3901 86.6165C58.7389 86.5975 58.9558 86.797 58.9652 87.1577H58.9746Z" fill="white"/>
<path d="M176.489 87.1671C176.489 87.528 176.29 87.7273 175.932 87.7178C175.583 87.7178 175.367 87.4994 175.376 87.1481C175.385 86.8348 175.592 86.6259 175.913 86.6164C176.262 86.5974 176.479 86.8158 176.479 87.1576L176.489 87.1671Z" fill="white"/>
<path d="M109.318 87.1866C109.318 87.538 109.101 87.7373 108.743 87.7183C108.412 87.7089 108.214 87.5094 108.205 87.1866C108.205 86.8543 108.432 86.6169 108.761 86.6074C109.101 86.6074 109.318 86.8258 109.318 87.1771V87.1866Z" fill="white"/>
<path d="M56.7499 108.313C57.0139 108.465 57.2401 108.597 57.523 108.759C57.4664 109.025 57.4287 109.31 57.3344 109.566C57.1647 110.022 56.9951 110.497 56.7499 110.915C56.288 111.702 55.6469 111.779 54.987 111.133C54.7702 110.924 54.6004 110.668 54.4213 110.43C54.3365 110.316 54.2611 110.184 54.1762 110.06C53.5917 110.611 53.0354 111.133 52.4227 111.712C52.1964 111.389 52.0173 111.133 51.8194 110.848C51.9514 110.734 52.055 110.639 52.1587 110.534C52.6113 110.079 53.0638 109.623 53.5163 109.167C53.6671 109.007 53.7426 108.825 53.6671 108.597C53.1769 107.07 53.0354 105.484 52.9413 103.888C52.9318 103.698 52.9035 103.509 52.8658 103.262H47.5865V102.198H52.8375V100.765H53.8557C53.8839 101.239 53.9123 101.686 53.9405 102.151H55.4772C55.3076 101.743 55.1567 101.391 54.9776 100.974C55.2792 100.917 55.5244 100.869 55.826 100.822C56.0146 101.268 56.2032 101.695 56.4105 102.151C56.7027 102.17 56.9951 102.179 57.3344 102.198V103.233H54.0537C53.8651 104.116 54.1668 106.917 54.5062 107.515C55.0813 106.461 55.4017 105.341 55.7883 104.164C56.0805 104.316 56.3257 104.439 56.5897 104.582C56.5613 104.743 56.552 104.895 56.5048 105.037C56.1182 106.31 55.6469 107.553 54.9681 108.702C54.8079 108.978 54.7702 109.224 54.9304 109.49C55.0624 109.718 55.1661 109.965 55.3264 110.174C55.6469 110.592 55.9109 110.573 56.1277 110.098C56.3163 109.689 56.4293 109.243 56.5802 108.816C56.6368 108.655 56.6745 108.493 56.7311 108.294L56.7499 108.313Z" fill="white"/>
<path d="M48.0578 107.96V104.523H51.9796C52.0173 105.672 52.008 106.802 51.9796 107.96H48.0578ZM50.9897 107.125V105.378H49.0288V107.125H50.9897Z" fill="white"/>
<path d="M52.0549 109.005V109.851C50.6502 110.211 49.2172 110.448 47.7089 110.61C47.6523 110.278 47.6051 109.973 47.5485 109.65C49.0664 109.433 50.5276 109.223 52.0549 108.996V109.005Z" fill="white"/>
</svg>
